<svg id="Layer_1" data-name="Layer 1" xmlns="http://www.w3.org/2000/svg" viewBox="0 0 404.83 301.63"><defs><style>.cls-1{fill:#018380;}.cls-2,.cls-7{fill:#fff;}.cls-10,.cls-3{fill:#2c3e50;}.cls-4{fill:#385266;}.cls-5{fill:#008fb3;}.cls-6{fill:#ccc;}.cls-7{opacity:0.1;}.cls-8{fill:#f9f9f9;}.cls-9{fill:#b34b78;}.cls-10{font-size:67.03px;font-family:OpenSans-Bold, Open Sans;font-weight:700;}</style></defs><title>calendar</title><path class="cls-1" d="M472.13-736.61H190.76a9.09,9.09,0,0,0-9.06,9.06v191.32H481.2V-727.55A9.09,9.09,0,0,0,472.13-736.61Z" transform="translate(-181.69 736.61)"/><rect class="cls-2" x="112.18" y="16.2" width="187.02" height="285.42"/><circle class="cls-2" cx="13.56" cy="8.32" r="3.32"/><circle class="cls-2" cx="36.42" cy="8.32" r="3.32"/><circle class="cls-2" cx="24.99" cy="8.32" r="3.32"/><rect class="cls-3" y="16.2" width="112.49" height="285.42"/><rect class="cls-4" x="9.61" y="55.72" width="92.23" height="11.33"/><rect class="cls-4" x="9.61" y="79.72" width="60.65" height="11.33"/><rect class="cls-4" x="9.61" y="102.72" width="92.23" height="93.2"/><rect class="cls-4" x="9.61" y="209.05" width="60.65" height="11.33"/><rect class="cls-5" x="9.61" y="236.38" width="46.97" height="20" rx="5" ry="5"/><rect class="cls-6" x="127.29" y="41.72" width="157.16" height="85"/><rect class="cls-6" x="127.29" y="139.04" width="99.08" height="20"/><rect class="cls-6" x="237.48" y="139.04" width="46.97" height="20" rx="5" ry="5"/><rect class="cls-6" x="127.29" y="182.22" width="157.16" height="11.33"/><rect class="cls-6" x="127.29" y="207.38" width="157.16" height="11.33"/><rect class="cls-6" x="127" y="232.55" width="157.16" height="11.33"/><rect class="cls-6" x="127" y="257.72" width="112.86" height="11.33"/><path class="cls-7" d="M481.2-727.55a9.09,9.09,0,0,0-9.06-9.06H320.76c-5,0,160.13,301.63,160.13,301.63V-536.23h.31Z" transform="translate(-181.69 736.61)"/><rect class="cls-8" x="274.18" y="129.48" width="130.66" height="82.36"/><rect class="cls-9" x="274.18" y="111.82" width="130.66" height="22.21"/><path class="cls-3" d="M488.08-616.76h0a4.1,4.1,0,0,1-4.09-4.09v-7.9a4.1,4.1,0,0,1,4.09-4.09h0a4.1,4.1,0,0,1,4.09,4.09v7.9A4.1,4.1,0,0,1,488.08-616.76Z" transform="translate(-181.69 736.61)"/><path class="cls-3" d="M556.19-616.76h0a4.1,4.1,0,0,1-4.09-4.09v-7.9a4.1,4.1,0,0,1,4.09-4.09h0a4.1,4.1,0,0,1,4.09,4.09v7.9A4.1,4.1,0,0,1,556.19-616.76Z" transform="translate(-181.69 736.61)"/><text class="cls-10" transform="translate(302.27 194.33)">28</text></svg>