<svg id="Layer_1" data-name="Layer 1" xmlns="http://www.w3.org/2000/svg" viewBox="0 0 439.37 204.68"><defs><style>.cls-1,.cls-4{fill:#2c3e50;}.cls-2{opacity:0.1;}.cls-3{opacity:0.2;}.cls-4{fill-rule:evenodd;}.cls-5{fill:#eee;}.cls-6{fill:#202a43;}.cls-7{fill:#fff;}.cls-8{fill:#008fb3;}.cls-9{fill:#b34b78;}</style></defs><title>ppl</title><path class="cls-1" d="M194.77,134.53c-.5-2.25-1.68-3.35-4.18-3.35l-68.32-39.5H80.77l-68.32,39.5c-2.5,0-3.68,1.09-4.18,3.35-.1.44-4.86,25.27-8.27,43H203C199.64,159.8,194.87,135,194.77,134.53Z"/><polygon class="cls-2" points="189.94 133.98 180.9 177.55 176.56 177.55 189.94 133.98"/><polygon class="cls-2" points="13.11 133.98 22.14 177.55 26.48 177.55 13.11 133.98"/><path class="cls-2" d="M157,120.45a212.24,212.24,0,0,1-25.89,57.1h3.09A198,198,0,0,0,157,120.45Z"/><path class="cls-2" d="M46.07,120.45a198,198,0,0,0,22.8,57.1H72A212.24,212.24,0,0,1,46.07,120.45Z"/><polygon class="cls-3" points="101.52 108.86 87.78 124.48 101.52 111.46 115.26 124.48 101.52 108.86"/><path class="cls-3" d="M157.11,119.9l-13.77-7.15,5.62-5.63L128.43,95.25c.48,5.5.74,11.07.74,16.69a188.83,188.83,0,0,1-11.69,65.6h13.58A212.35,212.35,0,0,0,157.11,119.9Z"/><path class="cls-3" d="M73.87,111.95c0-5.63.26-11.19.74-16.69L54.09,107.12l5.62,5.63L45.94,119.9a212.35,212.35,0,0,0,26,57.65H85.56A188.83,188.83,0,0,1,73.87,111.95Z"/><path class="cls-4" d="M98.46,0C66.85,0,57.51,17.88,57.51,34.85c0,8.93,1.69,22.48,1.69,22.48h84.63s1.69-13.55,1.69-22.48c0-17-9.33-34.85-40.94-34.85Z"/><path class="cls-5" d="M64.33,32.66V51.8l-1.86-2.55c-3.83,1.81-4.9,4.92-4.9,8.49,0,5.32,3.94,10.78,6.76,13.28L66,85a11.61,11.61,0,0,0,5.22,8.34l15.46,10a27.37,27.37,0,0,0,29.65,0l15.46-10A11.61,11.61,0,0,0,137,85l1.69-14c2.82-2.5,6.76-8,6.76-13.28,0-3.58-1.08-6.68-4.9-8.49l-1.86,2.55V32.66Z"/><path class="cls-6" d="M101.52,52.48c-.85,0-2.36.07-3.42.19a1.11,1.11,0,0,1-1-.46C93.58,47.31,87.85,45,80,45c-7.41,0-13.35,2.91-16.27,3.56a1.2,1.2,0,0,0-.94,1.17v3.53a1.21,1.21,0,0,0,.44.93c1.16,1,1.49,3,1.49,5.11,0,10.2,5.71,16.05,15.66,16.05a17.6,17.6,0,0,0,15.35-9.42c2.45-4.47,2.72-8.38,5.83-8.38s3.38,3.91,5.83,8.38a17.6,17.6,0,0,0,15.35,9.42c10,0,15.66-5.85,15.66-16.05,0-2.12.33-4.15,1.49-5.11a1.21,1.21,0,0,0,.44-.93V49.72a1.2,1.2,0,0,0-.94-1.17C136.44,47.9,130.5,45,123.08,45c-7.9,0-13.62,2.32-17.12,7.23a1.11,1.11,0,0,1-1,.46C103.88,52.55,102.37,52.48,101.52,52.48Zm-34.29,7c0-7.24,3.73-11.8,12.75-11.8,7.67,0,15.42,2.94,15.42,9.51,0,8.71-6.74,15.79-15,15.79C75.46,73,67.23,71.27,67.23,59.51ZM122.68,73c-8.29,0-15-7.09-15-15.79,0-6.57,7.74-9.51,15.42-9.51,9,0,12.75,4.56,12.75,11.8C135.81,71.27,127.59,73,122.68,73Z"/><path class="cls-1" d="M432.4,139.8A15.22,15.22,0,0,0,425,129.38L359.5,91.69H318.58L253,129.38a15.22,15.22,0,0,0-7.37,10.42l-7,37.75H439.37Z"/><polygon class="cls-3" points="423.37 139.8 412.23 177.55 407.84 177.55 423.37 139.8"/><polygon class="cls-3" points="254.7 139.8 265.85 177.55 270.24 177.55 254.7 139.8"/><path class="cls-7" d="M366.26,112.46c0-5.84-.28-11.62-.79-17.33l-6-3.44H318.58l-6,3.44c-.51,5.71-.78,11.49-.78,17.33a192.09,192.09,0,0,0,11.29,65.08H355A192.1,192.1,0,0,0,366.26,112.46Z"/><polygon class="cls-3" points="339.04 108.59 319.5 123.33 339.04 113.25 358.58 123.33 339.04 108.59"/><path class="cls-8" d="M349.74,170.63a247.55,247.55,0,0,0-4.86-48.5l4.37-5.8L339,108.59l-10.21,7.74,4.37,5.8a247.55,247.55,0,0,0-4.86,48.5v6.92h21.41Z"/><rect class="cls-3" x="376.16" y="172.92" width="29.84" height="4.63"/><path class="cls-3" d="M391.18,117.37a194.9,194.9,0,0,1-22.11,60.18h3.86A170.07,170.07,0,0,0,391.18,117.37Z"/><path class="cls-3" d="M286.9,117.37a170.06,170.06,0,0,0,18.25,60.18H309A194.89,194.89,0,0,1,286.9,117.37Z"/><path class="cls-1" d="M391.21,117.18l-10.31-7.56,2.9-3.95L365.48,95.13c.51,5.71.79,11.49.79,17.33A192.1,192.1,0,0,1,355,177.55h14.09A194.91,194.91,0,0,0,391.21,117.18Z"/><path class="cls-1" d="M311.81,112.46c0-5.84.28-11.62.78-17.33l-18.33,10.54,2.9,3.95-10.31,7.56A194.9,194.9,0,0,0,309,177.55H323.1A192.09,192.09,0,0,1,311.81,112.46Z"/><path class="cls-1" d="M373.95,9.81a32,32,0,0,0-23-9.81H287.65l4.68,4.23H280.88c1,13.63,6.65,23,14.26,26.75l1,26.35H381.9l.94-24.12A32,32,0,0,0,373.95,9.81Z"/><path class="cls-5" d="M301.84,32.66V48.53c-5.35,1.63-6.76,5.1-6.76,9.2,0,5.32,3.94,10.78,6.76,13.28l1.69,14a11.61,11.61,0,0,0,5.22,8.33l15.46,10a27.37,27.37,0,0,0,29.65,0l15.46-10A11.61,11.61,0,0,0,374.54,85l1.69-14c2.82-2.5,6.76-8,6.76-13.28,0-4.1-1.41-7.58-6.76-9.2V32.66Z"/><path class="cls-6" d="M217.49,27.18c-16.67.58-30.64,6.11-39.77,15.9C168,53.49,165,68.41,165.71,89.57l2.69,77.48a24,24,0,0,0,24.79,23.13L253,188.11a24,24,0,0,0,23.13-24.79l-2.69-77.48c-.73-21.16-4.79-35.84-15.19-45.55C248.48,31.15,234.16,26.6,217.49,27.18Z"/><path class="cls-5" d="M298.66,171.76c-1.43-7.65-3.07-9.82-10.35-11.77l-44.5-19.08a8.62,8.62,0,0,1-5.21-7.9V122.25H202V133a8.62,8.62,0,0,1-5.21,7.9L152.28,160c-7.28,2-8.92,4.12-10.35,11.77-.47,2.5-3.24,19.57-5.4,32.92H304.06C301.9,191.34,299.13,174.27,298.66,171.76Z"/><path class="cls-5" d="M298.66,171.76c-1.43-7.65-3.07-9.82-10.35-11.77l-44.5-19.08a8.55,8.55,0,0,1-2.28-1.45c-1.8,9.17-10.63,16.16-21.23,16.16s-19.42-7-21.23-16.16a8.55,8.55,0,0,1-2.28,1.45L152.28,160c-7.28,2-8.92,4.12-10.35,11.77-.47,2.5-3.24,19.57-5.4,32.92H304.06C301.9,191.34,299.13,174.27,298.66,171.76Z"/><path class="cls-9" d="M298.66,171.76c-1.43-7.65-3.07-9.82-10.35-11.77l-39.05-16.75c-3,10.47-12.33,18.53-23.91,20.38v41.06h78.71C301.9,191.34,299.13,174.27,298.66,171.76Z"/><path class="cls-9" d="M215.24,163.62c-11.57-1.85-20.91-9.91-23.91-20.38L152.28,160c-7.28,2-8.92,4.12-10.35,11.77-.47,2.5-3.24,19.57-5.4,32.92h78.71Z"/><polygon class="cls-2" points="285.22 189.19 281.52 204.68 283.54 204.68 285.22 189.19"/><polygon class="cls-2" points="155.37 189.19 157.06 204.68 159.07 204.68 155.37 189.19"/><path class="cls-5" d="M185.44,70.29v40.39a11.47,11.47,0,0,0,4.88,9.37l18.3,12.86a20.37,20.37,0,0,0,23.37,0l18.3-12.86a11.47,11.47,0,0,0,4.88-9.37V70.29Z"/></svg>