<svg id="Layer_1" data-name="Layer 1" xmlns="http://www.w3.org/2000/svg" viewBox="0 0 509.93 300.63"><defs><style>.cls-1{fill:#2b3e4f;}.cls-2{fill:#eaeaea;}.cls-3{fill:#042238;}.cls-4{fill:#018380;}.cls-14,.cls-15,.cls-5,.cls-7{fill:#fff;}.cls-6{fill:#b34b78;}.cls-7{font-size:27px;font-family:CircularStd-Bold, CircularStd Bold;font-weight:700;}.cls-8{fill:#d7e4ec;}.cls-9{fill:none;stroke:#018380;stroke-miterlimit:10;stroke-width:2px;}.cls-10{fill:#008fb3;}.cls-11{fill:#2c3e50;}.cls-12{fill:#06a9ce;}.cls-13{fill:#385266;}.cls-14{opacity:0.1;}.cls-15{font-size:17px;font-family:FSZuliaPro, FSZuliaPro;letter-spacing:-0.03em;}.cls-16{letter-spacing:-0.03em;}.cls-17{letter-spacing:-0.04em;}.cls-18{letter-spacing:-0.01em;}.cls-19{letter-spacing:0em;}</style></defs><title>we-open</title><path class="cls-1" d="M595.43-372.05H197.54a12.86,12.86,0,0,0-12.82,12.82V-88.7H608.24V-359.23A12.86,12.86,0,0,0,595.43-372.05Z" transform="translate(-141.52 372.05)"/><rect class="cls-2" x="59.79" y="18.09" width="390.36" height="251.32"/><path class="cls-1" d="M141.52-89.7V-82a6.44,6.44,0,0,0,4.33,5.82l11.68,3.5a37.07,37.07,0,0,0,8.85,1.3H626.58a37,37,0,0,0,8.85-1.3l11.68-3.5A6.44,6.44,0,0,0,651.45-82V-89.7Z" transform="translate(-141.52 372.05)"/><path class="cls-3" d="M358.67-88.7A6.39,6.39,0,0,0,365-82.86h62.92a6.39,6.39,0,0,0,6.35-5.84Z" transform="translate(-141.52 372.05)"/><path class="cls-4" d="M538.46-337.13H257.08a9.09,9.09,0,0,0-9.06,9.06v191.32H547.52V-328.06A9.09,9.09,0,0,0,538.46-337.13Z" transform="translate(-141.52 372.05)"/><rect class="cls-5" x="102.48" y="51.13" width="306.5" height="218.28"/><circle class="cls-5" cx="120.06" cy="43.24" r="3.32"/><circle class="cls-5" cx="142.91" cy="43.24" r="3.32"/><circle class="cls-5" cx="131.48" cy="43.24" r="3.32"/><rect class="cls-6" x="194.07" y="175.76" width="123.62" height="52.59" rx="5" ry="5"/><text class="cls-7" transform="translate(220.54 221.09)">OPEN</text><circle class="cls-8" cx="201.24" cy="182.93" r="3.17"/><circle class="cls-8" cx="310.53" cy="182.93" r="3.17"/><line class="cls-9" x1="201.24" y1="182.93" x2="255.88" y2="102.93"/><line class="cls-9" x1="310.89" y1="182.93" x2="256.25" y2="102.93"/><path class="cls-10" d="M373-304.14v27.25a19.7,19.7,0,0,0,19.64,19.64h10.31a19.7,19.7,0,0,0,19.64-19.64v-27.25Z" transform="translate(-141.52 372.05)"/><path class="cls-11" d="M323.39-304.14v27.25A19.7,19.7,0,0,0,343-257.26h10.31A19.7,19.7,0,0,0,373-276.9v-27.25Z" transform="translate(-141.52 372.05)"/><path class="cls-10" d="M273.8-304.14v27.25a19.7,19.7,0,0,0,19.64,19.64h10.31a19.7,19.7,0,0,0,19.64-19.64v-27.25Z" transform="translate(-141.52 372.05)"/><path class="cls-11" d="M224.22-304.14v27.25a19.7,19.7,0,0,0,19.64,19.64h10.31A19.7,19.7,0,0,0,273.8-276.9v-27.25Z" transform="translate(-141.52 372.05)"/><path class="cls-10" d="M472.15-304.14v27.25a19.7,19.7,0,0,0,19.64,19.64H502.1a19.7,19.7,0,0,0,19.64-19.64v-27.25Z" transform="translate(-141.52 372.05)"/><path class="cls-11" d="M422.56-304.14v27.25a19.7,19.7,0,0,0,19.64,19.64h10.31a19.7,19.7,0,0,0,19.64-19.64v-27.25Z" transform="translate(-141.52 372.05)"/><path class="cls-11" d="M521.73-304.14v27.25a19.7,19.7,0,0,0,19.64,19.64h10.31a19.7,19.7,0,0,0,19.64-19.64v-27.25Z" transform="translate(-141.52 372.05)"/><polygon class="cls-12" points="276.04 51.13 236.46 51.13 231.46 67.91 281.04 67.91 276.04 51.13"/><polygon class="cls-13" points="236.46 51.13 186.87 51.13 181.87 67.91 231.46 67.91 236.46 51.13"/><polygon class="cls-12" points="186.87 51.13 137.28 51.13 132.28 67.91 181.87 67.91 186.87 51.13"/><polygon class="cls-13" points="142.28 51.13 106.7 51.13 82.7 67.91 132.28 67.91 142.28 51.13"/><polygon class="cls-13" points="276.04 51.13 325.63 51.13 330.63 67.91 281.04 67.91 276.04 51.13"/><polygon class="cls-12" points="325.63 51.13 375.21 51.13 380.21 67.91 330.63 67.91 325.63 51.13"/><polygon class="cls-13" points="370.21 51.13 405.8 51.13 429.8 67.91 380.21 67.91 370.21 51.13"/><path class="cls-14" d="M595.43-372.05H412.17l114,283.35h82.1V-359.23A12.86,12.86,0,0,0,595.43-372.05Z" transform="translate(-141.52 372.05)"/><text class="cls-15" transform="translate(232.35 195.62)">W<tspan class="cls-16" x="13.82" y="0">e</tspan><tspan class="cls-17" x="21.91" y="0">’</tspan><tspan class="cls-18" x="24.77" y="0">r</tspan><tspan class="cls-19" x="30.16" y="0">e</tspan></text></svg>